<?xml version="1.0" encoding="UTF-8"?>
<!-- Uploaded to: ICON Repo, www.svgrepo.com, Generator: ICON Repo Mixer Tools -->
<svg fill="#000000" width="800px" height="800px" version="1.1" viewBox="144 144 512 512" xmlns="http://www.w3.org/2000/svg">
 <path d="m400 211.07c-104.34 0-188.93 84.586-188.93 188.93 0 104.34 84.586 188.93 188.93 188.93 104.34 0 188.93-84.586 188.93-188.93 0-7.0547-0.38281-14.008-1.1367-20.855-21.492 22.539-51.824 36.598-85.453 36.598-65.215 0-118.08-52.867-118.08-118.08 0-33.633 14.059-63.961 36.598-85.457-6.8438-0.75-13.801-1.1367-20.852-1.1367zm-220.42 188.93c0-121.73 98.684-220.42 220.42-220.42 22.562 0 44.363 3.3945 64.898 9.7148 6.2578 1.9258 10.672 7.5234 11.082 14.059 0.41016 6.5352-3.2656 12.645-9.2344 15.34-30.102 13.59-51.004 43.855-51.004 78.969 0 47.82 38.77 86.59 86.594 86.59 35.109 0 65.375-20.898 78.969-51.004 2.6914-5.9688 8.8008-9.6445 15.336-9.2344s12.137 4.8242 14.059 11.082c6.3203 20.539 9.7148 42.34 9.7148 64.902 0 121.73-98.684 220.41-220.41 220.41-121.73 0-220.42-98.684-220.42-220.41z" fill-rule="evenodd"/>
</svg>